<?xml version="1.0" standalone="no"?>
<!DOCTYPE svg PUBLIC "-//W3C//DTD SVG 20010904//EN"
 "http://www.w3.org/TR/2001/REC-SVG-20010904/DTD/svg10.dtd">
<svg version="1.0" xmlns="http://www.w3.org/2000/svg"
 width="800.000000pt" height="485.000000pt" viewBox="0 0 800.000000 485.000000"
 preserveAspectRatio="xMidYMid meet">

<g transform="translate(0.000000,485.000000) scale(0.100000,-0.100000)"
fill="#000000" stroke="none">
<path d="M0 2425 l0 -2426 418 5 c229 3 437 6 462 6 28 0 60 10 86 25 24 14
45 25 48 25 14 0 4 -40 -12 -49 -12 -7 118 -10 419 -11 l435 0 0 25 c-1 32 18
33 22 1 l3 -25 341 -1 c323 0 340 1 345 18 3 14 11 18 29 14 13 -2 24 -11 24
-18 0 -18 57 -19 63 -1 3 9 7 9 19 0 18 -16 1258 -18 1258 -3 0 6 5 10 11 10
5 0 7 -4 4 -10 -4 -6 28 -10 89 -10 84 0 95 2 89 16 -5 13 -2 15 15 9 13 -4
22 -2 22 5 0 6 10 8 25 4 15 -4 25 -2 25 5 0 19 22 12 46 -14 20 -21 31 -25
81 -24 52 1 55 2 31 12 -30 12 -37 27 -14 27 8 0 16 -5 18 -12 2 -6 18 -11 36
-11 18 0 32 -4 32 -9 0 -4 14 -8 30 -8 21 0 30 5 30 16 0 14 7 15 42 10 23 -4
45 -11 49 -17 3 -6 30 -9 60 -7 51 3 54 4 51 28 -3 30 -22 51 -29 33 -7 -21
-22 -15 -16 6 4 15 -4 24 -39 38 -40 18 -42 20 -22 31 36 19 72 22 70 6 0 -8
13 -22 29 -32 32 -18 45 -31 45 -46 0 -5 -7 -3 -15 4 -9 7 -19 10 -22 6 -4 -4
-3 -10 3 -14 6 -4 14 -19 18 -35 6 -26 9 -27 64 -27 31 0 52 4 46 8 -6 4 -10
24 -9 44 1 29 -2 38 -14 38 -13 1 -13 2 2 11 14 8 17 18 12 40 -4 18 -3 29 4
29 6 0 11 -15 12 -32 l1 -33 14 35 c11 28 13 30 9 8 -5 -26 2 -34 29 -29 4 1
15 -6 22 -16 13 -16 14 -14 8 19 -6 39 2 48 24 26 10 -10 15 -10 22 2 8 13 10
12 10 -2 0 -11 5 -15 15 -12 10 4 15 0 15 -15 0 -12 -4 -21 -10 -21 -14 0 -12
-69 3 -83 6 -7 26 -13 44 -14 24 -2 31 1 26 12 -3 9 1 15 11 15 9 0 16 -7 16
-15 0 -18 16 -20 23 -2 4 9 6 9 6 0 1 -10 34 -13 131 -13 109 0 130 2 130 15
0 9 10 15 23 16 12 0 30 2 41 4 11 2 20 -3 23 -16 5 -17 15 -19 119 -19 97 0
114 2 114 16 0 11 6 14 20 9 15 -5 20 -2 20 12 0 14 3 12 13 -7 l13 -25 1097
-3 1097 -2 0 2425 0 2425 -4000 0 -4000 0 0 -2425z m4514 2111 c18 -7 55 -36
82 -63 57 -57 114 -99 114 -84 0 5 16 27 35 48 27 30 37 35 47 25 6 -6 8 -12
4 -12 -5 0 6 -10 25 -23 36 -24 52 -67 26 -67 -19 0 -31 -46 -18 -68 6 -9 11
-14 11 -10 0 11 124 -43 148 -65 23 -22 33 -78 10 -59 -7 5 -41 17 -76 26 -71
18 -94 20 -74 7 13 -8 -63 -19 -152 -22 l-41 -2 40 -7 c37 -7 37 -7 10 -10
-30 -2 -30 -2 -5 -10 14 -4 41 -8 61 -9 49 -1 89 -51 89 -111 0 -53 15 -80 44
-80 13 0 26 -7 30 -15 3 -8 17 -20 31 -27 22 -10 25 -17 22 -47 -2 -20 -6 -42
-10 -48 -9 -14 -86 -22 -91 -8 -2 5 -3 -18 -3 -52 1 -34 3 -60 5 -58 3 2 17
-4 32 -15 29 -20 90 -28 90 -11 0 21 69 14 90 -9 3 -3 17 -11 32 -17 19 -8 26
-17 22 -28 -5 -12 2 -15 29 -15 26 0 36 5 40 20 4 16 14 20 45 20 23 0 44 -4
47 -10 3 -5 26 -10 49 -10 39 0 45 -3 56 -30 8 -18 10 -48 7 -74 -4 -23 -2
-47 3 -52 5 -5 5 -25 0 -49 -14 -61 -12 -74 15 -87 23 -10 24 -12 7 -24 -10
-6 -28 -14 -40 -16 -21 -3 -22 -4 -7 -25 12 -17 26 -23 57 -23 31 0 41 -4 45
-20 3 -11 9 -20 14 -20 5 0 9 -7 9 -15 0 -22 38 -18 45 5 3 11 12 20 20 20 7
0 15 6 17 12 5 15 58 -16 58 -33 0 -6 16 -26 35 -45 29 -28 35 -41 35 -77 0
-24 5 -48 10 -53 7 -7 5 -21 -5 -42 -16 -31 -16 -32 36 -111 28 -44 58 -82 66
-86 9 -3 40 8 69 24 46 25 63 29 112 26 31 -2 74 -4 96 -4 44 0 76 -24 76 -56
0 -15 -12 -28 -44 -43 -24 -12 -50 -22 -58 -22 -8 0 -33 -9 -56 -20 -54 -26
-61 -25 -104 10 -72 59 -114 54 -153 -18 -61 -113 -178 -92 -198 36 -4 21 -13
51 -20 68 -14 30 -15 59 -3 104 7 25 89 90 112 90 18 0 37 27 24 35 -5 3 -10
-1 -10 -10 0 -9 -4 -13 -10 -10 -5 3 -10 14 -10 23 -1 21 -63 92 -82 92 -8 0
-19 -5 -24 -10 -7 -7 -27 -7 -62 1 -39 10 -52 17 -52 31 0 10 -7 18 -15 18
-10 0 -15 11 -15 35 0 29 -5 36 -35 51 -37 17 -54 34 -36 34 6 0 11 7 11 15 0
8 4 15 9 15 10 0 24 38 22 58 -1 7 -11 24 -23 37 -11 13 -26 34 -32 47 -11 22
-30 28 -98 30 -16 1 -28 5 -28 9 0 5 -9 9 -20 9 -12 0 -20 -7 -20 -18 0 -32
-27 -60 -54 -55 -14 3 -25 8 -24 12 2 20 -4 31 -18 31 -10 0 -14 -6 -10 -15 3
-8 1 -15 -5 -15 -6 0 -23 -12 -39 -27 -35 -36 -51 -47 -73 -56 -9 -4 -20 -15
-24 -24 -3 -10 -21 -36 -39 -59 -17 -22 -34 -51 -36 -64 -2 -17 -15 -30 -38
-41 -39 -19 -54 -13 -64 25 -3 12 -17 28 -31 34 -14 6 -25 16 -25 21 0 16
-114 128 -138 135 -13 4 -32 17 -42 29 l-20 21 -1 -25 c-1 -15 -4 -9 -9 16 -6
36 -7 37 -9 10 -2 -28 -3 -29 -16 -11 -13 18 -14 17 -21 -9 -17 -67 27 -286
80 -395 14 -30 23 -45 20 -32 -3 12 -1 22 5 22 5 0 13 9 16 20 3 11 14 20 24
20 10 0 26 9 36 20 10 11 22 17 26 14 5 -3 9 0 9 5 0 14 21 14 54 1 22 -8 24
-13 16 -34 -6 -16 -6 -27 0 -31 15 -9 12 -45 -5 -61 -22 -22 -18 -51 6 -57 21
-6 91 16 116 36 14 10 169 10 228 -1 34 -6 41 -12 45 -37 8 -41 59 -145 75
-151 7 -3 24 2 37 10 30 20 38 13 38 -34 0 -20 5 -41 10 -46 15 -15 3 -41 -21
-47 -13 -4 -19 -14 -19 -35 0 -40 -21 -56 -65 -48 -19 4 -35 11 -35 16 0 6
-12 10 -27 10 -53 0 -75 11 -69 33 4 15 -5 31 -29 54 -19 19 -35 40 -35 47 0
19 -29 40 -83 60 -48 18 -49 18 -79 -4 -22 -16 -33 -19 -41 -11 -13 13 -28 15
-25 4 2 -5 -1 -9 -7 -10 -5 -1 -12 -10 -16 -20 -6 -14 -8 -15 -8 -2 -1 9 -10
24 -21 34 -20 18 -21 18 -15 -1 6 -17 4 -16 -12 3 -10 12 -26 33 -35 45 -10
13 -4 -6 12 -42 17 -36 30 -71 30 -78 0 -7 7 -26 15 -42 29 -57 84 -326 95
-467 6 -76 18 -164 26 -195 19 -78 17 -156 -6 -262 -23 -104 -64 -184 -153
-298 -34 -44 -71 -93 -82 -108 -71 -97 -227 -223 -310 -250 -22 -7 -44 -16
-50 -19 -5 -4 -39 -19 -75 -34 -42 -18 -72 -37 -85 -56 -24 -36 -58 -54 -73
-39 -13 13 -16 6 -30 -72 -6 -30 -17 -82 -26 -115 -9 -34 -15 -104 -16 -160 0
-65 -4 -105 -12 -113 -7 -7 -8 -12 -2 -12 5 0 9 -10 10 -22 0 -13 2 -29 5 -36
6 -19 -58 -25 -65 -6 -3 7 0 15 7 18 7 2 4 5 -6 5 -13 1 -17 6 -12 20 3 12 0
21 -10 25 -9 3 -15 17 -14 33 0 23 2 25 8 9 13 -33 25 1 24 64 -1 30 5 79 13
109 19 75 20 74 -28 50 -23 -12 -56 -23 -73 -25 -16 -1 -31 -4 -32 -5 -2 -1
-6 -2 -10 -3 -5 -1 -20 -9 -34 -19 -41 -27 -190 -21 -254 11 -21 11 -30 11
-33 3 -3 -8 -15 -4 -35 12 -18 13 -51 32 -74 42 -24 10 -45 26 -48 36 -3 9
-21 24 -40 34 -19 9 -36 21 -36 28 -5 44 1 100 11 112 10 12 9 15 -8 15 -12 0
-23 8 -27 19 -3 11 -19 34 -34 50 -58 62 -44 112 23 78 17 -9 51 -21 75 -27
38 -10 46 -9 53 4 5 9 18 16 29 16 11 0 22 7 25 15 8 20 70 20 129 -1 25 -8
54 -12 64 -9 12 3 21 0 25 -10 3 -9 10 -14 14 -11 12 7 125 -22 185 -48 22
-10 36 -12 32 -7 -11 18 28 12 63 -9 42 -26 62 -26 34 1 -12 11 -20 24 -18 28
10 16 -40 34 -62 22 -16 -8 -25 -6 -46 14 -15 14 -24 30 -20 37 4 7 3 8 -4 4
-7 -4 -12 -3 -12 3 0 6 -11 13 -25 17 -14 3 -25 12 -25 19 0 8 -10 15 -22 17
-24 3 -68 -12 -68 -24 0 -3 -9 -4 -20 -1 -23 6 -24 9 -8 27 7 7 22 10 35 8 39
-7 25 7 -19 19 -24 7 -74 11 -113 10 -54 -2 -80 3 -113 19 -54 26 -64 20 -26
-16 l29 -26 -64 7 c-35 4 -79 13 -96 21 -29 12 -80 21 -127 23 -9 1 -33 19
-54 41 -21 22 -45 40 -54 40 -9 0 -22 10 -30 21 -8 12 -21 27 -27 35 -7 7 -13
21 -13 31 -1 10 -7 29 -14 42 -7 13 -11 32 -9 41 3 10 0 21 -6 24 -6 4 -11 2
-11 -4 0 -7 -5 -6 -14 2 -11 11 -10 16 7 30 11 10 26 18 34 18 7 0 13 5 13 10
0 6 -16 10 -36 10 -19 0 -33 4 -30 9 3 5 -15 12 -40 16 -25 3 -60 15 -77 25
-18 10 -43 21 -57 25 -13 4 -36 16 -50 27 -14 10 -51 22 -81 27 -31 5 -75 15
-98 21 -36 9 -40 13 -31 30 16 30 12 39 -21 48 l-32 8 50 42 c28 23 77 57 108
74 74 42 82 60 23 52 -59 -8 -186 -40 -231 -59 -43 -18 -50 -19 -41 -4 4 8 -3
9 -25 4 -17 -4 -31 -2 -31 3 0 16 33 40 99 71 68 32 112 43 246 61 44 6 125
22 180 35 55 13 119 26 142 30 56 9 62 21 14 29 -38 6 -132 -13 -174 -36 -36
-19 -120 -38 -167 -37 -40 0 -42 1 -20 10 33 14 138 42 280 75 63 15 132 31
152 36 21 5 68 33 105 63 87 71 157 104 257 122 45 8 122 24 171 36 70 17 135
23 292 27 128 4 207 10 214 17 16 16 24 217 8 207 -12 -7 -9 29 7 84 4 13 3
22 -2 21 -22 -4 -23 4 -3 54 62 159 101 316 93 367 -10 60 -38 78 -54 35 -5
-13 -18 -30 -30 -37 -16 -10 -20 -23 -20 -65 0 -56 -4 -60 -62 -55 -20 2 -24
-13 -7 -24 15 -9 -60 -46 -83 -41 -9 3 -30 -10 -50 -32 -44 -48 -83 -72 -111
-69 -12 1 -39 -2 -60 -6 -32 -7 -43 -4 -75 17 -43 29 -78 29 -101 0 -13 -15
-20 -17 -33 -9 -21 13 -36 0 -20 -16 18 -18 14 -28 -9 -28 -12 0 -27 8 -34 17
-11 15 -10 20 8 35 11 10 17 21 12 26 -4 4 -10 1 -12 -5 -7 -20 -41 -15 -53 7
-9 17 -6 22 27 37 55 26 54 51 -6 93 -39 28 -51 44 -60 77 -24 91 8 108 173
94 75 -6 101 -12 108 -25 8 -14 68 -46 88 -46 13 0 31 52 25 71 -4 12 -2 19 7
19 7 0 19 9 26 20 7 11 18 17 27 14 8 -4 22 -1 30 6 8 7 23 10 34 7 38 -9 44
7 21 54 -32 63 -53 80 -88 73 -37 -8 -46 6 -28 42 28 58 28 70 1 82 -37 17
-65 15 -71 -5 -3 -10 -10 -26 -15 -35 -6 -12 -6 -18 1 -18 6 0 5 -8 -2 -20 -7
-11 -20 -20 -29 -20 -21 0 -45 28 -41 50 2 13 -5 17 -33 18 -24 1 -35 -3 -35
-12 0 -38 -52 -21 -75 24 -13 26 -19 29 -48 23 -17 -3 -40 -10 -49 -15 -14 -7
-25 -1 -49 26 -16 19 -39 38 -50 41 -32 10 -21 56 16 74 17 7 40 22 52 33 l21
20 36 -39 c19 -21 36 -41 36 -45 0 -5 10 -8 23 -8 12 0 32 -7 44 -15 27 -19
83 -15 107 8 11 9 25 17 30 17 6 0 17 9 23 20 11 16 9 25 -10 56 -12 21 -41
57 -64 82 -24 25 -47 61 -53 83 -6 21 -20 43 -30 49 -15 8 -19 17 -14 35 4 15
2 25 -5 25 -6 0 -11 7 -11 15 0 18 17 19 50 1 21 -12 29 -12 53 0 25 14 30 13
56 -6 16 -11 39 -20 51 -20 34 0 97 -43 101 -69 0 -3 2 -24 4 -46 1 -22 3 -46
4 -52 0 -7 8 -13 16 -13 9 0 18 -6 21 -14 6 -16 62 -42 71 -33 6 6 65 -23 96
-46 9 -8 17 -22 17 -31 0 -14 9 -16 55 -14 53 3 55 4 57 33 6 88 7 138 8 328
1 189 3 213 24 280 21 63 31 79 87 131 35 32 76 65 92 72 60 32 273 44 331 20z
m2154 -426 c10 -17 9 -23 -8 -40 -23 -23 -70 -27 -70 -5 0 55 52 86 78 45z
m-3457 -80 c10 -6 19 -19 19 -30 0 -10 5 -22 10 -25 6 -4 10 -29 9 -56 -2 -39
2 -53 19 -69 25 -23 28 -39 10 -44 -7 -2 -27 -8 -44 -13 l-32 -10 -8 51 c-4
28 -8 77 -8 109 0 57 0 58 -30 64 l-31 7 30 12 c37 16 33 16 56 4z m2799 -106
c71 -10 94 -50 48 -82 -10 -7 -18 -22 -18 -33 0 -13 -11 -25 -34 -34 -32 -14
-66 -48 -66 -67 0 -4 15 -14 33 -22 l32 -14 -36 -1 c-20 -1 -50 2 -66 5 l-30
6 1 72 c1 60 -3 76 -21 100 -30 37 -29 42 10 67 22 14 42 18 67 15 19 -3 55
-8 80 -12z m-438 -101 c10 -9 17 -18 16 -22 -1 -12 27 -71 34 -71 4 0 8 -9 8
-21 0 -15 -5 -19 -16 -15 -8 3 -12 2 -9 -4 3 -6 23 -10 43 -10 37 0 76 -20 99
-50 9 -12 8 -18 -2 -30 -8 -8 -18 -35 -24 -60 -5 -24 -18 -50 -27 -57 -26 -19
-94 -17 -94 2 0 8 -4 15 -10 15 -5 0 -10 9 -10 21 0 11 -8 34 -17 50 -17 29
-43 46 -43 29 0 -16 -19 -11 -41 11 -11 11 -20 28 -19 37 1 9 2 43 1 74 0 48
3 59 19 68 11 6 20 19 20 29 0 10 3 21 7 24 9 9 44 -2 65 -20z m1030 -138 c32
-22 57 -45 58 -52 0 -10 44 -48 60 -52 3 -1 15 -4 27 -7 25 -7 32 -35 27 -112
-4 -65 -16 -82 -45 -64 -16 10 -24 10 -34 2 -13 -11 -63 -4 -52 6 6 7 -79 93
-118 120 -16 11 -48 24 -69 28 -79 15 -119 54 -111 110 8 58 26 67 120 63 75
-3 84 -5 137 -42z m-379 -127 c4 -10 7 -10 14 -1 13 18 53 -12 53 -38 0 -11 7
-22 15 -25 8 -4 15 -12 15 -19 0 -7 4 -15 10 -17 5 -1 1 -18 -10 -36 -16 -27
-26 -33 -48 -30 -21 2 -28 9 -30 31 -2 15 -9 27 -18 27 -19 0 -18 29 1 36 8 4
15 10 15 16 0 5 -5 6 -10 3 -26 -16 -80 30 -65 55 9 14 52 12 58 -2z m-3660
-78 c-3 -11 -9 -17 -15 -14 -5 3 -4 12 3 20 16 19 18 18 12 -6z m782 0 c3 -5
-1 -10 -10 -10 -9 0 -13 5 -10 10 3 6 8 10 10 10 2 0 7 -4 10 -10z m255 0 c0
-5 -2 -10 -4 -10 -3 0 -8 5 -11 10 -3 6 -1 10 4 10 6 0 11 -4 11 -10z m-340
-60 c0 -5 -7 -10 -16 -10 -8 0 -12 5 -9 10 3 6 10 10 16 10 5 0 9 -4 9 -10z
m-735 -9 c-3 -5 -1 -12 5 -16 5 -3 10 -10 10 -16 0 -13 -34 -11 -48 3 -7 7
-12 8 -12 2 0 -6 5 -15 11 -21 9 -9 5 -14 -15 -19 -34 -8 -55 8 -37 30 7 8 9
21 5 27 -5 8 -2 11 7 7 8 -3 23 -2 34 3 28 11 47 11 40 0z m673 -26 c3 -3 -4
-14 -16 -25 -11 -11 -25 -27 -30 -36 -5 -8 -27 -18 -50 -21 -25 -3 -50 -15
-63 -29 l-22 -24 27 -24 c27 -23 28 -27 30 -137 2 -63 8 -125 15 -139 10 -20
10 -32 0 -55 -7 -17 -18 -50 -23 -74 -7 -26 -19 -48 -31 -55 -11 -6 -23 -15
-26 -20 -4 -5 -15 -5 -25 -1 -23 10 -22 10 -56 19 -16 5 -28 12 -28 16 0 16
-68 50 -91 46 -13 -3 -32 -5 -41 -5 -9 -1 -30 -12 -46 -26 -21 -17 -42 -25
-70 -25 -33 0 -44 6 -70 36 -17 20 -28 42 -26 49 3 7 -5 20 -17 28 -26 19 -59
7 -59 -22 0 -26 -74 -58 -95 -41 -9 7 -18 10 -22 7 -11 -12 -31 13 -26 32 3
10 -6 27 -21 42 -18 17 -23 31 -19 50 4 22 1 27 -21 33 -14 3 -36 4 -49 1 -15
-4 -28 -1 -36 9 -19 23 -40 20 -34 -4 4 -15 0 -20 -16 -20 -12 0 -24 -6 -27
-13 -8 -22 13 -64 36 -70 16 -4 20 -2 16 9 -4 10 6 16 34 20 22 4 37 11 34 15
-3 5 -9 7 -14 4 -5 -3 -12 0 -15 6 -5 7 4 9 26 7 29 -2 34 -7 32 -26 -2 -15 5
-26 21 -33 14 -7 22 -17 19 -25 -3 -8 0 -14 6 -14 6 0 11 -4 11 -9 0 -4 -12
-6 -26 -3 -20 3 -26 0 -31 -17 -3 -11 -11 -21 -18 -21 -6 0 -20 -9 -29 -19
-18 -20 -66 -34 -66 -20 0 5 -5 9 -11 9 -6 0 -17 7 -25 15 -10 9 -25 12 -44 8
-28 -5 -42 8 -21 21 11 7 11 56 -1 56 -5 0 -11 -7 -14 -15 -5 -11 -18 -13 -57
-10 -29 3 -54 10 -55 15 -2 6 -8 8 -12 5 -5 -3 -5 -17 1 -32 5 -14 10 -41 11
-60 1 -28 4 -32 20 -27 10 3 18 1 18 -5 0 -16 -36 -13 -50 4 -7 8 -23 15 -37
15 -13 0 -31 7 -39 15 -9 8 -25 15 -36 15 -17 0 -19 5 -15 27 3 16 0 32 -8 38
-14 11 -26 87 -16 103 3 5 13 12 21 15 8 2 2 3 -14 1 -33 -5 -111 29 -120 51
-7 18 -43 20 -49 3 -3 -10 -7 -10 -20 1 -23 19 -21 34 3 28 11 -3 20 0 20 6 0
8 3 8 11 0 17 -17 87 26 91 57 2 20 8 24 28 22 13 -1 27 -6 30 -11 3 -5 13
-19 23 -32 10 -13 26 -39 37 -56 16 -26 26 -33 52 -33 54 0 149 21 249 55 88
29 99 31 123 18 24 -13 30 -13 45 1 17 15 54 13 78 -6 6 -5 13 -5 15 0 1 5 15
12 29 15 23 6 28 2 41 -33 13 -32 22 -40 51 -45 48 -9 77 1 77 28 0 22 31 57
50 57 6 0 10 9 10 20 0 21 27 40 58 40 10 0 27 9 37 20 12 13 22 17 28 11 19
-19 127 11 127 35 0 8 -14 17 -30 21 -17 3 -29 11 -27 17 4 11 30 12 109 4 20
-2 34 0 32 4 -6 9 44 58 57 58 5 0 9 -4 9 -10 0 -5 7 -10 15 -10 8 0 15 5 15
10 0 6 -5 10 -10 10 -16 0 21 51 44 61 21 9 83 5 94 -6z m1253 -34 c7 11 9 11
9 -3 0 -9 -4 -19 -9 -22 -11 -7 -22 18 -20 47 2 15 3 13 6 -7 4 -22 7 -26 14
-15z m26 -23 c-3 -8 -6 -5 -6 6 -1 11 2 17 5 13 3 -3 4 -12 1 -19z m1628 -68
c3 -5 15 -10 26 -10 27 0 20 -21 -12 -37 -28 -15 -139 -17 -139 -4 0 6 9 16
20 24 11 8 17 17 12 22 -4 5 -2 6 3 3 6 -3 19 -2 30 3 28 11 53 11 60 -1z
m-172 -118 c11 -12 15 -31 12 -62 -3 -42 -5 -45 -35 -48 -33 -3 -62 15 -81 50
-8 14 -3 25 21 48 35 34 60 38 83 12z m-3888 -382 c-3 -5 -12 -7 -20 -3 -21 7
-19 13 6 13 11 0 18 -4 14 -10z m1211 -55 c1 -17 4 -37 8 -45 3 -9 -1 -24 -9
-35 -12 -14 -18 -16 -21 -7 -3 6 -16 12 -29 12 -37 0 -55 10 -70 41 -26 49
-20 58 38 62 80 5 82 5 83 -28z m-1236 5 c0 -5 -5 -10 -11 -10 -6 0 -3 -7 5
-16 9 -8 16 -19 16 -23 0 -3 14 -15 30 -25 17 -9 28 -22 25 -27 -4 -5 -2 -9 4
-9 6 0 30 -14 55 -31 35 -25 45 -39 50 -70 5 -33 10 -39 32 -39 37 0 21 -16
-23 -23 -46 -8 -91 10 -95 38 -2 13 -12 21 -28 23 -31 5 -79 50 -80 76 0 15
-5 17 -29 13 -28 -6 -29 -5 -35 45 -4 28 -6 51 -4 52 11 8 74 36 81 36 4 0 7
-4 7 -10z m1530 -40 c0 -25 -24 -31 -49 -14 -26 18 -27 31 -3 36 29 7 52 -3
52 -22z m-777 -156 c17 -17 -39 -64 -77 -64 -15 0 -17 35 -2 58 7 12 68 17 79
6z m2147 -34 c14 -26 5 -40 -26 -40 -27 0 -27 0 -14 34 11 31 25 33 40 6z
m-2540 -824 c6 -8 21 -17 33 -19 12 -2 2 -5 -23 -7 -25 -1 -60 -3 -77 -5 -18
-1 -33 -1 -33 1 0 4 72 43 81 44 4 0 12 -6 19 -14z m378 -224 c18 -29 32 -58
32 -64 0 -6 16 -35 35 -64 19 -29 35 -56 35 -60 0 -4 8 -13 18 -20 16 -13 16
-13 -3 -14 -11 0 -33 11 -49 25 -16 13 -36 27 -45 30 -24 8 -90 142 -82 169 1
5 -2 12 -6 15 -13 10 -33 49 -33 65 0 26 34 23 51 -4 8 -14 30 -49 47 -78z
m139 -245 c3 -4 0 -7 -8 -7 -12 0 -11 -2 1 -11 13 -9 13 -10 0 -5 -8 3 -23 9
-32 12 -10 4 -18 10 -18 14 0 10 47 7 57 -3z m533 -35 c14 -11 20 -24 16 -31
-6 -9 -11 -8 -20 5 -7 9 -23 18 -37 19 -43 4 -44 5 -29 15 23 15 45 12 70 -8z
m-147 1 c-7 -2 -21 -2 -30 0 -10 3 -4 5 12 5 17 0 24 -2 18 -5z m-349 -39 l35
-17 -22 -18 c-16 -12 -27 -14 -40 -8 -9 6 -21 8 -26 5 -5 -3 -17 4 -27 16 -12
13 -13 18 -4 13 21 -13 39 -15 46 -4 3 5 0 9 -5 9 -6 0 -11 5 -11 10 0 14 14
12 54 -6z m590 -23 c4 -5 -3 -7 -14 -4 -23 6 -26 13 -6 13 8 0 17 -4 20 -9z
m926 -481 c0 -5 -5 -10 -11 -10 -5 0 -7 5 -4 10 3 6 8 10 11 10 2 0 4 -4 4
-10z m2210 6 c0 -3 -4 -8 -10 -11 -5 -3 -10 -1 -10 4 0 6 5 11 10 11 6 0 10
-2 10 -4z m-2442 -40 c4 -35 -14 -26 -20 9 -4 16 -1 24 6 22 6 -2 12 -16 14
-31z m2019 28 c-3 -3 -12 -4 -19 -1 -8 3 -5 6 6 6 11 1 17 -2 13 -5z m-218
-54 c0 -9 -4 -8 -9 5 -5 11 -9 27 -9 35 0 9 4 8 9 -5 5 -11 9 -27 9 -35z m997
23 c-10 -10 -19 5 -10 18 6 11 8 11 12 0 2 -7 1 -15 -2 -18z m-3017 -20 c-1
-10 -5 -29 -9 -43 -7 -21 -8 -19 -9 18 -1 23 4 42 9 42 6 0 10 -8 9 -17z m711
-37 c0 -34 -39 -96 -40 -63 0 9 -3 17 -6 17 -4 0 -13 -8 -21 -17 -10 -14 -10
-10 2 14 8 18 15 43 15 56 0 12 5 28 12 35 18 18 38 -5 38 -42z m1840 28 c0
-8 -4 -12 -10 -9 -5 3 -10 13 -10 21 0 8 5 12 10 9 6 -3 10 -13 10 -21z
m-1532 4 c-7 -21 20 -42 36 -29 10 8 16 9 21 1 10 -15 42 -12 49 6 3 8 11 12
17 8 7 -4 26 -9 43 -11 17 -1 36 -10 42 -18 7 -9 19 -12 34 -8 17 4 21 2 18
-8 -3 -8 -11 -14 -19 -14 -8 0 -20 -4 -26 -8 -9 -6 -11 -3 -7 7 5 12 -5 15
-50 15 -41 0 -56 -4 -56 -14 0 -9 -13 -14 -41 -13 -28 0 -39 4 -35 13 4 12
-27 45 -44 45 -13 0 -22 18 -15 30 9 14 37 12 33 -2z m-4045 -38 c3 -11 2 -20
-3 -20 -8 0 -20 24 -20 41 0 17 17 1 23 -21z m3257 20 c0 -5 -2 -10 -4 -10 -3
0 -8 5 -11 10 -3 6 -1 10 4 10 6 0 11 -4 11 -10z m-483 -22 c-3 -8 -6 -5 -6 6
-1 11 2 17 5 13 3 -3 4 -12 1 -19z m40 -10 c-3 -7 -5 -2 -5 12 0 14 2 19 5 13
2 -7 2 -19 0 -25z m1498 22 c-3 -5 -12 -10 -18 -10 -7 0 -6 4 3 10 19 12 23
12 15 0z m735 0 c0 -5 7 -7 15 -3 9 3 15 2 14 -3 -5 -29 2 -43 21 -39 23 4 24
-1 8 -38 -13 -27 -25 -33 -43 -19 -13 9 -14 65 -2 73 5 4 0 10 -12 14 -21 6
-29 25 -11 25 6 0 10 -4 10 -10z m1190 6 c0 -1 -13 -12 -30 -24 l-30 -22 11
23 c6 12 19 23 30 24 10 1 19 1 19 -1z m-3054 -43 c-3 -8 -3 -20 1 -26 14 -22
11 -35 -8 -40 -15 -4 -17 -2 -10 11 4 10 7 32 6 49 -2 19 1 30 7 27 5 -3 7
-13 4 -21z m2442 -3 c-2 -32 -8 -36 -25 -19 -14 14 -5 49 13 49 10 0 14 -10
12 -30z m-5495 13 c-7 -2 -21 -2 -30 0 -10 3 -4 5 12 5 17 0 24 -2 18 -5z
m4827 -14 c0 -14 -17 -10 -23 5 -4 10 -1 13 9 9 7 -3 14 -9 14 -14z m730 -15
c0 -5 -6 -18 -13 -29 -11 -14 -16 -15 -22 -5 -5 8 -4 15 3 18 8 2 7 11 -4 27
-15 24 -15 24 10 12 14 -7 26 -17 26 -23z m50 27 c0 -5 -7 -12 -16 -15 -24 -9
-28 -7 -14 9 14 17 30 20 30 6z m-5509 -27 c39 -19 55 -35 69 -67 15 -32 16
-45 7 -56 -10 -11 -13 -6 -20 27 -4 22 -14 45 -22 52 -11 9 -12 7 -9 -7 4 -13
-3 -23 -19 -32 -17 -9 -23 -19 -20 -32 4 -15 0 -19 -19 -19 -48 0 -90 52 -54
66 8 3 14 14 13 24 -1 15 -8 18 -44 14 -68 -7 -51 28 23 45 21 5 40 9 42 10 1
1 25 -10 53 -25z m4268 -6 c-10 -18 -8 -19 11 -13 16 5 21 3 18 -6 -3 -8 -11
-14 -19 -14 -8 0 -20 -4 -26 -8 -17 -11 -18 44 -1 61 17 17 30 4 17 -20z m371
17 c-7 -9 -15 -13 -19 -10 -3 3 1 10 9 15 21 14 24 12 10 -5z m-3520 -5 c0 -5
-5 -10 -11 -10 -5 0 -7 5 -4 10 3 6 8 10 11 10 2 0 4 -4 4 -10z m1911 -22 c-6
-26 -12 -33 -29 -31 -14 2 -22 -3 -22 -12 0 -8 -6 -15 -14 -15 -8 0 -23 -3
-33 -6 -10 -3 -3 3 15 15 30 20 36 30 33 58 -1 6 9 14 21 16 13 2 26 5 29 6 4
0 3 -14 0 -31z m-3258 7 c-3 -9 -8 -14 -10 -11 -3 3 -2 9 2 15 9 16 15 13 8
-4z m4795 -3 c2 -7 -3 -12 -12 -12 -9 0 -16 -4 -16 -10 0 -5 -7 -7 -15 -4 -8
4 -15 1 -15 -5 0 -6 -4 -11 -10 -11 -5 0 -10 11 -10 24 0 19 4 22 25 18 15 -3
25 0 25 8 0 14 22 8 28 -8z m200 6 c14 -14 16 -28 2 -28 -5 0 -14 9 -20 20
-12 22 -1 27 18 8z m432 3 c0 -6 -4 -13 -10 -16 -5 -3 -10 1 -10 9 0 9 5 16
10 16 6 0 10 -4 10 -9z m113 -6 c4 -8 15 -12 27 -10 13 2 20 -1 20 -11 0 -17
16 -19 23 -1 3 7 6 6 6 -5 1 -26 -18 -32 -40 -12 -10 9 -19 13 -19 9 0 -4 -9
0 -20 10 -21 19 -26 35 -11 35 5 0 11 -7 14 -15z m-2403 1 c0 -3 -4 -8 -10
-11 -5 -3 -10 -1 -10 4 0 6 5 11 10 11 6 0 10 -2 10 -4z m1700 -6 c0 -5 -4
-10 -9 -10 -6 0 -13 5 -16 10 -3 6 1 10 9 10 9 0 16 -4 16 -10z m192 -26 c-9
-16 -10 -14 -9 8 1 15 6 23 11 18 4 -4 4 -16 -2 -26z m695 16 c1 -11 -2 -18
-8 -15 -11 7 -12 35 -1 35 4 0 8 -9 9 -20z m-4377 6 c0 -3 -4 -8 -10 -11 -5
-3 -10 -1 -10 4 0 6 5 11 10 11 6 0 10 -2 10 -4z m1746 -11 c-8 -7 -27 -32
-41 -56 l-27 -44 6 34 c9 48 29 77 55 77 19 0 20 -2 7 -11z m1483 -22 c-5 -14
-16 -35 -25 -46 -16 -22 -16 -22 -9 3 3 14 9 33 12 43 3 9 0 17 -6 17 -6 0
-11 4 -11 9 0 4 11 6 24 4 22 -5 24 -8 15 -30z m-4022 -5 c-3 -7 -5 -2 -5 12
0 14 2 19 5 13 2 -7 2 -19 0 -25z m977 17 c8 -8 18 -15 23 -15 4 0 17 -12 27
-27 11 -14 14 -23 8 -19 -6 3 -13 2 -17 -4 -3 -5 0 -10 9 -10 8 0 17 -6 19
-12 4 -10 7 -10 14 -1 6 9 17 7 41 -9 17 -11 29 -24 26 -29 -3 -5 7 -10 23
-10 21 -1 23 -3 8 -6 -11 -3 -24 -9 -29 -14 -5 -4 -17 -4 -28 2 -11 6 -24 6
-35 0 -27 -15 -66 8 -60 36 2 13 0 23 -5 23 -5 0 -8 5 -6 12 3 7 -7 23 -20 35
-14 13 -22 26 -19 30 4 3 2 12 -4 20 -16 19 5 17 25 -2z m2506 5 c0 -5 -4 -10
-10 -10 -5 0 -10 5 -10 10 0 6 5 10 10 10 6 0 10 -4 10 -10z m665 0 c3 -5 1
-10 -4 -10 -6 0 -11 5 -11 10 0 6 2 10 4 10 3 0 8 -4 11 -10z m185 -16 c0 -2
-9 0 -20 6 -11 6 -20 13 -20 16 0 2 9 0 20 -6 11 -6 20 -13 20 -16z m1130 22
c0 -3 -4 -8 -10 -11 -5 -3 -10 -1 -10 4 0 6 5 11 10 11 6 0 10 -2 10 -4z
m-4345 -27 c0 -7 -8 -15 -17 -17 -10 -2 -18 1 -18 7 0 6 -10 12 -22 12 -19 1
-17 3 7 9 38 10 50 7 50 -11z m1936 -9 c18 0 8 -17 -17 -29 -20 -9 -25 -9 -21
1 2 7 10 12 16 10 7 -1 10 7 8 20 -2 13 -2 17 0 11 3 -7 9 -13 14 -13z m1864
12 c-3 -3 -11 0 -18 7 -9 10 -8 11 6 5 10 -3 15 -9 12 -12z m-2335 -17 c-13
-15 -4 -75 10 -75 4 0 6 -9 3 -19 -3 -13 3 -24 19 -34 32 -21 64 -25 60 -8 -2
7 7 20 18 28 14 10 18 19 12 25 -5 5 -3 26 6 54 9 28 18 41 22 34 6 -9 11 -7
19 6 6 11 11 15 11 10 0 -6 -9 -20 -21 -32 -26 -28 -33 -88 -13 -109 9 -8 12
-20 8 -27 -5 -8 -2 -9 9 -5 10 4 29 2 43 -3 17 -7 32 -6 46 1 14 8 23 8 31 0
7 -7 15 -7 26 2 8 6 12 7 9 2 -3 -6 12 -19 34 -30 34 -16 41 -17 48 -5 14 22
30 0 33 -45 2 -33 -1 -39 -22 -45 -13 -3 -28 -14 -32 -25 -6 -17 -8 -16 -8 8
-1 15 4 27 9 27 19 0 10 26 -10 27 -15 1 -20 -4 -20 -23 0 -29 -47 -54 -62
-32 -4 7 -8 9 -8 5 0 -11 -43 13 -54 31 -6 11 -10 11 -16 2 -5 -8 -11 -8 -22
4 -9 8 -18 12 -22 9 -3 -3 -12 -1 -19 5 -8 7 -17 9 -20 5 -4 -3 -7 1 -7 10 0
19 -16 23 -22 5 -5 -13 -13 -7 -96 71 l-54 51 17 52 c22 66 24 70 36 62 6 -4
6 -11 -1 -19z m514 -17 c-5 -8 -10 -5 -14 8 -10 25 0 41 12 20 5 -9 6 -21 2
-28z m1481 32 c3 -5 -1 -10 -9 -10 -9 0 -16 5 -16 10 0 6 4 10 9 10 6 0 13 -4
16 -10z m-3381 -9 c7 -10 -22 -37 -30 -28 -9 8 3 37 15 37 5 0 12 -4 15 -9z
m1046 -12 c0 -6 -4 -7 -10 -4 -5 3 -10 11 -10 16 0 6 5 7 10 4 6 -3 10 -11 10
-16z m1441 6 c5 4 6 -1 2 -10 -5 -13 -7 -14 -14 -3 -5 7 -8 18 -8 23 0 6 3 4
6 -3 2 -6 9 -10 14 -7z m129 -25 c0 -9 10 -16 22 -17 13 -1 24 -6 26 -11 1 -5
13 -7 26 -5 56 11 38 -55 -21 -76 -42 -15 -47 -12 -45 34 1 20 -2 33 -7 31 -5
-3 -9 0 -8 7 0 6 -1 21 -2 32 -1 17 -3 18 -12 5 -9 -12 -10 -12 -5 3 3 10 6
24 6 30 0 18 20 -15 20 -33z m1590 31 c0 -12 -20 -25 -27 -18 -7 7 6 27 18 27
5 0 9 -4 9 -9z m70 -31 c0 -12 -3 -12 -16 2 -9 9 -13 21 -9 28 9 14 25 -5 25
-30z m-3565 20 c3 -5 -1 -10 -9 -10 -9 0 -16 5 -16 10 0 6 4 10 9 10 6 0 13
-4 16 -10z m240 0 c-3 -5 -1 -10 4 -10 6 0 11 -4 11 -10 0 -15 -27 -12 -33 4
-5 12 2 20 21 25 2 1 0 -3 -3 -9z m788 -14 c49 -8 65 -26 22 -26 -14 0 -25 -3
-25 -7 0 -9 -45 -8 -77 2 -13 4 -23 11 -23 16 0 13 43 40 50 30 3 -4 26 -11
53 -15z m1243 -4 c-22 -5 -30 3 -21 18 5 8 11 7 22 -2 15 -12 14 -13 -1 -16z
m1579 -39 c-4 -12 12 -28 29 -28 5 0 12 -9 16 -20 7 -19 7 -19 18 0 11 19 11
19 12 -2 0 -13 5 -21 13 -19 6 1 9 1 5 -1 -5 -3 -8 -15 -8 -28 0 -38 -25 -50
-57 -27 -28 20 -33 22 -53 22 -7 0 -7 6 0 19 13 25 13 51 0 51 -5 0 -18 -9
-29 -21 l-19 -21 -13 24 c-11 20 -10 22 3 10 12 -10 17 -10 26 1 8 10 6 16 -9
26 -12 7 -18 15 -15 18 3 3 12 0 21 -7 13 -10 15 -9 15 10 0 13 -8 24 -20 27
-11 3 -17 9 -15 14 3 4 12 6 20 2 9 -3 15 1 15 8 1 8 12 1 25 -16 14 -16 23
-35 20 -42z m-5039 38 c-4 -6 -14 -7 -23 -4 -15 6 -14 7 3 13 22 9 29 6 20 -9z
m69 9 c6 0 -3 -8 -18 -16 -16 -9 -31 -13 -35 -10 -3 3 0 6 6 6 7 0 12 5 12 11
0 5 -5 7 -12 3 -6 -4 -8 -3 -5 4 4 5 15 9 25 7 9 -2 22 -4 27 -5z m1646 -55
l-9 -40 -1 37 c-1 41 11 84 17 58 1 -9 -2 -33 -7 -55z m374 45 c-10 -11 -20
-18 -23 -15 -7 6 18 35 31 35 5 0 2 -9 -8 -20z m2140 11 c3 -6 -3 -15 -14 -20
-26 -15 -31 -14 -31 5 0 8 5 12 10 9 6 -3 10 -1 10 4 0 14 17 14 25 2z m245
-17 c0 -18 -12 -18 -36 2 -10 8 -13 13 -6 9 6 -3 12 -2 12 4 0 6 7 8 15 5 8
-4 15 -12 15 -20z m-5475 6 c3 -5 1 -10 -4 -10 -6 0 -11 5 -11 10 0 6 2 10 4
10 3 0 8 -4 11 -10z m1365 6 c0 -2 -7 -7 -16 -10 -8 -3 -12 -2 -9 4 6 10 25
14 25 6z m4250 -7 c0 -5 5 -7 12 -3 7 4 8 3 4 -4 -4 -6 -13 -9 -21 -5 -17 6
-20 23 -5 23 6 0 10 -5 10 -11z m236 -4 c5 -12 10 -13 20 -4 8 6 14 8 14 3 0
-5 5 -2 10 6 7 12 12 12 22 2 9 -9 9 -12 -1 -12 -8 0 -11 -6 -7 -16 4 -9 1
-23 -6 -31 -10 -12 -7 -18 12 -34 l25 -19 -27 10 c-25 8 -28 7 -28 -12 0 -19
-1 -19 -21 5 -11 15 -26 26 -32 24 -7 -1 -11 7 -9 18 2 11 4 32 4 48 1 29 15
36 24 12z m334 -6 c0 -5 -12 -9 -27 -9 -27 1 -27 1 -9 15 19 14 36 12 36 -6z
m-4460 -4 c19 -23 8 -25 -14 -4 -11 11 -15 19 -9 19 6 0 16 -7 23 -15z m1929
-22 c-4 -21 -9 -40 -10 -43 -12 -37 -21 -50 -29 -45 -7 4 -7 12 0 25 5 10 10
26 10 35 0 14 28 65 35 65 2 0 -1 -17 -6 -37z m1518 15 c-3 -8 -6 -5 -6 6 -1
11 2 17 5 13 3 -3 4 -12 1 -19z m135 -13 c11 -43 -6 -51 -32 -15 -19 26 -20
34 -9 41 21 13 32 6 41 -26z m85 13 c-3 -8 -6 -5 -6 6 -1 11 2 17 5 13 3 -3 4
-12 1 -19z m178 11 c-4 -6 1 -17 11 -24 18 -13 18 -14 -3 -8 -22 5 -30 23 -16
36 10 11 15 8 8 -4z m864 -14 c3 -17 2 -17 -13 -3 -19 20 -21 31 -3 26 6 -3
14 -13 16 -23z m-6109 5 c0 -5 -4 -10 -10 -10 -5 0 -10 5 -10 10 0 6 5 10 10
10 6 0 10 -4 10 -10z m583 -10 c-3 -11 -9 -20 -14 -20 -14 0 -11 28 4 33 6 3
13 6 14 6 0 1 -1 -8 -4 -19z m2211 -20 c-6 -5 -24 21 -24 34 0 6 6 1 14 -10 8
-10 12 -21 10 -24z m225 31 c7 -5 9 -11 4 -14 -14 -9 -54 4 -47 14 7 11 25 11
43 0z m373 -1 c0 -5 1 -16 2 -22 1 -7 6 -16 11 -20 6 -4 2 -8 -8 -8 -22 0 -42
19 -43 43 -2 18 35 25 38 7z m251 -5 c-3 -9 -8 -14 -10 -11 -3 3 -2 9 2 15 9
16 15 13 8 -4z m-3187 -38 c-9 -36 -31 -41 -30 -7 0 14 4 32 8 39 13 20 29 -4
22 -32z m2812 3 c-5 -17 -8 -46 -6 -65 2 -18 1 -32 -3 -29 -4 2 -9 -6 -12 -18
-6 -22 -6 -22 -28 -2 l-22 19 6 -25 6 -24 -23 27 c-13 15 -27 23 -32 19 -5 -3
-3 0 4 8 6 8 12 23 12 35 1 19 1 19 11 1 16 -27 50 -59 56 -52 3 3 0 12 -6 20
-8 10 -9 16 -1 21 15 9 12 25 -4 19 -8 -3 -17 -1 -21 5 -3 6 -1 11 4 11 6 0
11 7 11 15 0 9 -6 12 -15 9 -9 -4 -15 -1 -15 7 0 9 12 14 32 15 18 1 34 6 36
13 2 6 8 9 12 6 5 -3 4 -19 -2 -35z m262 15 c5 3 10 1 10 -5 0 -6 10 -2 22 10
24 22 34 25 43 11 3 -5 -4 -12 -15 -16 -11 -3 -20 -13 -20 -20 0 -9 6 -12 17
-8 11 4 14 3 9 -6 -5 -7 -15 -10 -23 -7 -9 4 -18 -4 -25 -24 -5 -17 -14 -30
-18 -30 -10 0 -1 38 11 46 20 12 7 23 -21 18 -26 -6 -30 -4 -30 15 0 11 -4 21
-10 21 -5 0 -10 5 -10 10 0 6 11 3 25 -6 13 -8 29 -13 35 -9z m-4625 5 c3 -5
1 -10 -4 -10 -6 0 -11 5 -11 10 0 6 2 10 4 10 3 0 8 -4 11 -10z m1884 -4 c7
-8 8 -17 3 -20 -6 -3 -12 3 -15 14 -6 24 -4 25 12 6z m2337 -59 c1 -39 0 -63
-3 -52 -2 11 -7 27 -10 35 -10 27 -9 90 2 90 6 0 11 -31 11 -73z m1010 46 c-7
-7 -26 7 -26 19 0 6 6 6 15 -2 9 -7 13 -15 11 -17z m274 -3 c0 -10 -7 -21 -16
-24 -12 -5 -15 -2 -10 10 3 8 6 22 6 30 0 9 5 12 10 9 6 -3 10 -14 10 -25z
m-4425 10 c3 -5 1 -10 -4 -10 -6 0 -11 5 -11 10 0 6 2 10 4 10 3 0 8 -4 11
-10z m2262 -12 c-3 -8 -6 -5 -6 6 -1 11 2 17 5 13 3 -3 4 -12 1 -19z m1383 2
c0 -5 -5 -10 -11 -10 -5 0 -7 5 -4 10 3 6 8 10 11 10 2 0 4 -4 4 -10z m927
-12 c-3 -8 -6 -5 -6 6 -1 11 2 17 5 13 3 -3 4 -12 1 -19z m483 12 c0 -5 -7
-10 -15 -10 -8 0 -15 5 -15 10 0 6 7 10 15 10 8 0 15 -4 15 -10z m-4172 -30
c36 -23 42 -30 25 -30 -12 0 -25 5 -28 10 -4 6 -11 8 -16 5 -5 -4 -9 -1 -9 4
0 6 -7 11 -15 11 -8 0 -15 7 -15 15 0 20 3 19 58 -15z m1528 -15 c-8 -9 -12
-23 -9 -32 4 -11 3 -14 -5 -9 -18 11 -15 43 6 64 12 13 18 14 20 5 2 -7 -3
-20 -12 -28z m609 -12 c-4 -32 -11 -62 -16 -68 -10 -10 -8 16 7 93 10 53 17
36 9 -25z m717 32 c3 -14 1 -25 -3 -25 -5 0 -9 -5 -9 -11 0 -5 5 -7 10 -4 6 3
13 -1 16 -9 8 -21 -5 -74 -15 -58 -5 8 -15 4 -33 -13 -15 -14 -30 -21 -33 -16
-3 6 -15 8 -27 6 -12 -3 -27 3 -34 13 -7 9 -14 15 -14 12 -10 -50 -6 -69 17
-79 13 -6 21 -16 18 -22 -4 -6 -20 0 -42 17 -33 25 -35 25 -28 5 8 -27 1 -27
-25 1 -11 12 -20 16 -20 10 0 -23 -15 -11 -16 13 -2 27 6 31 24 13 9 -9 12 -9
12 0 0 6 7 9 16 5 11 -4 15 -1 13 13 -1 10 3 32 10 48 6 16 10 35 7 43 -8 19
4 16 20 -4 12 -16 15 -16 24 -3 5 8 7 24 4 35 -4 15 -3 16 4 6 8 -11 13 -10
26 6 9 10 30 20 45 21 23 2 30 -2 33 -23z m-4772 5 c0 -5 -2 -10 -4 -10 -3 0
-8 5 -11 10 -3 6 -1 10 4 10 6 0 11 -4 11 -10z m2502 -8 c-2 -7 -11 -11 -18
-8 -8 3 -25 0 -39 -6 -30 -14 -42 -5 -24 16 18 19 89 18 81 -2z m875 -14 c-3
-7 -5 -2 -5 12 0 14 2 19 5 13 2 -7 2 -19 0 -25z m153 -5 c0 -6 -14 -18 -31
-27 -22 -11 -28 -12 -20 -2 6 7 8 16 4 19 -3 4 -1 7 5 7 6 0 14 10 17 21 6 17
9 19 16 8 5 -8 9 -19 9 -26z m-998 -5 c-5 -21 -6 -21 -12 -2 -8 21 -3 37 10
29 4 -3 6 -15 2 -27z m711 -9 c-3 -10 -9 -16 -14 -13 -5 3 -9 -2 -9 -10 0 -8
-4 -18 -10 -21 -6 -3 -7 1 -4 9 4 10 1 16 -10 16 -11 0 -14 -7 -10 -27 2 -16
0 -35 -5 -42 -8 -12 -13 -11 -29 9 l-19 23 -21 -21 c-12 -12 -17 -22 -11 -22
21 0 3 -23 -21 -27 -14 -2 -29 -8 -34 -13 -15 -15 -46 -12 -46 5 0 9 9 15 24
15 13 0 29 7 36 15 11 13 10 14 -5 9 -15 -6 -17 -3 -13 25 4 30 -10 55 -28 49
-21 -7 -15 18 8 35 22 16 29 17 49 6 13 -7 38 -14 54 -16 103 -9 100 -9 103
16 3 17 6 20 12 12 4 -7 5 -22 3 -32z m3057 31 c0 -5 -4 -10 -10 -10 -5 0 -10
5 -10 10 0 6 5 10 10 10 6 0 10 -4 10 -10z m-2982 -34 c0 -19 -3 -22 -13 -13
-8 8 -9 14 -3 18 6 4 7 12 3 19 -5 8 -4 11 2 7 6 -4 11 -18 11 -31z m-2768 8
c0 -2 -12 -4 -27 -4 -21 0 -24 3 -14 9 13 8 41 5 41 -5z m210 1 c0 -8 -6 -15
-14 -15 -8 0 -22 -7 -30 -16 -9 -8 -19 -13 -24 -10 -4 2 -14 1 -22 -4 -10 -6
-5 -11 21 -19 30 -9 28 -10 -25 -6 -33 2 -64 9 -69 14 -6 6 -22 8 -37 5 -18
-4 -31 0 -41 12 -13 16 -12 16 8 6 12 -7 28 -10 36 -7 7 3 25 1 40 -4 20 -8
25 -7 21 3 -3 7 -15 19 -27 25 -19 10 -18 11 15 7 21 -3 40 -1 42 3 3 4 18 6
35 3 16 -2 37 1 48 7 23 14 23 14 23 -4z m5700 5 c0 -5 -5 -10 -11 -10 -8 0
-7 -5 1 -15 19 -23 5 -29 -18 -9 -11 9 -18 23 -15 30 6 16 43 19 43 4z m-3559
-17 c43 -26 45 -42 3 -33 -27 6 -34 5 -34 -8 0 -23 -6 -11 -13 26 -7 37 1 40
44 15z m1559 -13 c15 0 40 -25 40 -40 0 -11 -21 3 -80 52 l-25 20 27 -16 c15
-9 32 -16 38 -16z m1550 5 c0 -14 5 -25 11 -25 5 0 7 -4 4 -10 -3 -5 0 -10 8
-10 17 0 30 -27 21 -41 -3 -5 -10 -7 -15 -4 -5 4 -9 2 -9 -4 0 -5 5 -11 12
-13 7 -3 9 -12 4 -24 -7 -18 -9 -17 -32 9 -14 16 -24 22 -24 14 0 -7 -7 -14
-15 -14 -9 0 -11 4 -6 11 6 7 2 24 -8 44 -17 33 -17 34 8 62 32 36 41 37 41 5z
m-5655 5 c11 -17 -5 -32 -21 -19 -7 6 -11 15 -8 20 7 12 21 11 29 -1z m4580 0
c4 -6 1 -9 -7 -8 -7 2 -12 -2 -11 -7 1 -6 -6 -11 -15 -12 -35 -3 -54 -10 -63
-24 -7 -12 -9 -12 -9 1 0 11 -3 11 -12 2 -9 -9 -10 -15 -2 -20 17 -12 25 -44
14 -57 -8 -9 -8 -15 0 -20 5 -3 10 1 10 9 0 9 3 16 7 16 14 0 43 -34 43 -52 0
-16 -3 -17 -21 -6 -17 11 -22 10 -35 -6 -12 -17 -14 -18 -14 -3 0 9 -5 17 -11
17 -5 0 -8 -3 -6 -7 3 -5 -10 -9 -29 -9 -19 -1 -42 -8 -52 -16 -9 -8 -24 -14
-32 -13 -22 1 -13 56 13 81 26 24 83 42 71 23 -5 -9 -2 -10 9 -6 9 3 17 1 19
-5 2 -6 2 19 0 55 -4 63 -3 67 17 67 14 0 19 -5 15 -15 -5 -11 -2 -13 10 -9 9
3 16 11 16 16 0 6 6 8 13 5 8 -3 20 -1 28 4 18 11 26 11 34 -1z m-2124 -23
c-10 -9 -11 -8 -5 6 3 10 9 15 12 12 3 -3 0 -11 -7 -18z m2687 13 c6 0 12 -5
12 -11 0 -5 -5 -7 -12 -3 -7 4 -8 3 -4 -5 4 -6 12 -9 17 -6 5 4 14 3 21 -1 8
-5 6 -10 -8 -14 -10 -4 -24 -3 -31 2 -8 7 -10 3 -6 -11 6 -25 -9 -28 -27 -6
-11 13 -15 13 -21 3 -6 -10 -13 -10 -26 -2 -25 15 -28 33 -5 27 14 -3 22 1 27
17 5 16 12 20 28 16 12 -3 28 -6 35 -6z m-5028 -10 c0 -5 -4 -10 -10 -10 -5 0
-10 5 -10 10 0 6 5 10 10 10 6 0 10 -4 10 -10z m3930 0 c8 -5 11 -10 5 -10 -5
0 -17 5 -25 10 -8 5 -10 10 -5 10 6 0 17 -5 25 -10z m-1970 -4 c0 -2 -7 -9
-15 -16 -13 -11 -14 -10 -9 4 5 14 24 23 24 12z m2540 -2 c0 -8 -19 -13 -24
-6 -3 5 1 9 9 9 8 0 15 -2 15 -3z m1796 -4 c9 0 13 -4 10 -9 -7 -11 -44 -3
-53 12 -4 7 0 8 11 4 10 -4 24 -7 32 -7z m-1607 -6 c31 -7 43 -24 16 -24 -8 0
-22 -8 -32 -18 -26 -27 -53 -34 -59 -17 -4 8 -11 12 -18 8 -6 -3 -7 -2 -3 3 5
5 13 10 18 10 5 1 14 2 19 3 6 0 10 10 10 21 0 22 3 23 49 14z m1441 -16 c0
-10 -2 -18 -4 -18 -2 0 -11 -3 -19 -6 -10 -4 -14 1 -12 18 3 27 1 25 20 25 8
0 15 -9 15 -19z m705 10 c14 -6 25 -17 25 -25 0 -7 7 -13 16 -13 13 0 14 -3 4
-15 -16 -19 -68 -45 -90 -45 -27 0 -33 41 -9 58 11 8 18 20 15 27 -4 11 1 25
10 25 2 0 15 -5 29 -12z m-5779 -56 c-12 -11 -17 7 -9 34 l8 29 3 -28 c2 -16
1 -31 -2 -35z m186 36 c2 -13 8 -23 15 -23 6 0 15 -3 19 -7 14 -15 26 -8 21
12 -3 14 0 20 11 20 8 0 12 -3 9 -6 -12 -13 14 -43 40 -47 27 -4 27 -4 5 -12
-12 -4 -29 -19 -37 -34 l-14 -26 -1 32 c0 23 -7 36 -22 45 -28 15 -50 16 -61
3 -5 -5 -6 0 -2 11 4 14 0 24 -10 28 -21 8 -19 26 4 26 13 0 21 -8 23 -22z
m2628 11 c0 -5 -4 -8 -9 -5 -5 3 -11 -1 -15 -9 -3 -8 -16 -15 -28 -14 -23 0
-23 0 -2 9 12 5 25 13 29 19 8 14 25 14 25 0z m70 -4 c10 -12 10 -15 -4 -15
-9 0 -16 7 -16 15 0 8 2 15 4 15 2 0 9 -7 16 -15z m1316 -11 c-4 -9 -9 -15
-11 -12 -3 3 -3 13 1 22 4 9 9 15 11 12 3 -3 3 -13 -1 -22z m561 0 c-3 -4 -14
-3 -24 0 -15 6 -15 8 -3 16 16 10 39 -4 27 -16z m587 10 c10 -25 -1 -29 -14
-5 -6 12 -7 21 -1 21 5 0 12 -7 15 -16z m-974 -25 c0 -10 -4 -19 -9 -19 -5 0
-8 11 -8 25 0 13 3 22 8 19 5 -3 9 -14 9 -25z m1485 21 c3 -5 1 -10 -4 -10 -6
0 -11 5 -11 10 0 6 2 10 4 10 3 0 8 -4 11 -10z m-2375 -54 c-25 -25 -39 -13
-16 13 10 11 15 26 11 33 -3 7 1 4 9 -7 15 -18 15 -21 -4 -39z m286 25 c-9
-10 -14 -20 -11 -23 3 -3 -1 -8 -9 -11 -11 -4 -14 2 -14 23 1 18 7 31 17 33
26 6 33 -4 17 -22z m834 19 c0 -5 -2 -10 -4 -10 -3 0 -8 5 -11 10 -3 6 -1 10
4 10 6 0 11 -4 11 -10z m715 -23 c-9 -5 -19 -6 -22 -3 -4 3 -1 6 5 6 7 0 9 7
5 18 -6 15 -5 15 11 3 16 -13 16 -15 1 -24z m-6473 1 c-7 -7 -12 -8 -12 -2 0
14 12 26 19 19 2 -3 -1 -11 -7 -17z m59 2 c18 -15 20 -19 8 -20 -9 0 -24 9
-34 20 -23 26 -4 26 26 0z m2276 -2 c-3 -8 -6 -5 -6 6 -1 11 2 17 5 13 3 -3 4
-12 1 -19z m70 0 c-3 -8 -6 -5 -6 6 -1 11 2 17 5 13 3 -3 4 -12 1 -19z m1770
16 c-3 -3 -12 -4 -19 -1 -8 3 -5 6 6 6 11 1 17 -2 13 -5z m976 -38 c-4 -5 1
-7 11 -3 25 10 40 -2 25 -19 -10 -13 -14 -12 -30 2 -11 10 -19 27 -19 38 0 17
2 18 9 6 6 -8 7 -18 4 -24z m82 24 c3 -5 2 -10 -4 -10 -5 0 -13 5 -16 10 -3 6
-2 10 4 10 5 0 13 -4 16 -10z m1565 -5 c32 -16 40 -35 15 -35 -25 0 -65 23
-65 37 0 17 14 17 50 -2z m-4730 -5 c0 -5 -5 -10 -11 -10 -5 0 -7 5 -4 10 3 6
8 10 11 10 2 0 4 -4 4 -10z m3419 -4 c9 -11 7 -15 -8 -19 -17 -4 -20 4 -12 31
2 5 9 1 20 -12z m62 -9 c-10 -9 -11 -8 -5 6 3 10 9 15 12 12 3 -3 0 -11 -7
-18z m-2531 3 c0 -5 -5 -10 -11 -10 -5 0 -7 5 -4 10 3 6 8 10 11 10 2 0 4 -4
4 -10z m2287 -7 c0 -7 -6 -13 -14 -13 -7 0 -13 6 -13 13 0 8 6 14 13 14 8 0
14 -6 14 -14z m758 7 c-3 -5 -14 -10 -23 -9 -14 0 -13 2 3 9 27 11 27 11 20 0z
m-4100 -10 c4 -6 12 -10 18 -9 34 4 52 -5 91 -46 35 -36 40 -45 25 -45 -10 0
-19 5 -19 10 0 6 -18 10 -40 10 -28 0 -43 5 -47 16 -5 13 -9 12 -29 -7 -13
-12 -24 -18 -24 -13 0 6 -7 19 -16 30 -15 18 -15 18 -9 -3 6 -22 -8 -32 -19
-14 -3 4 -17 6 -31 3 -36 -6 -33 20 6 52 31 26 82 35 94 16z m332 -7 c6 -17
-18 -27 -28 -12 -6 10 -9 10 -9 2 0 -7 -7 -10 -15 -7 -14 6 -13 8 2 19 20 15
45 13 50 -2z m303 -4 c0 -5 -4 -9 -10 -9 -5 0 -10 7 -10 16 0 8 5 12 10 9 6
-3 10 -10 10 -16z m2823 4 c-7 -3 -13 -11 -13 -19 0 -8 -4 -14 -10 -14 -11 0
-1 32 14 42 6 4 13 4 16 1 3 -3 -1 -8 -7 -10z m456 -5 c-1 -13 -4 -34 -8 -48
-7 -24 -7 -24 -13 -3 -7 26 1 73 13 73 5 0 9 -10 8 -22z m-3554 2 c3 -5 1 -10
-4 -10 -6 0 -11 5 -11 10 0 6 2 10 4 10 3 0 8 -4 11 -10z m2395 -16 c0 -8 -4
-14 -9 -14 -6 0 -9 9 -8 19 1 22 17 18 17 -5z m-3073 -6 c-3 -8 -6 -5 -6 6 -1
11 2 17 5 13 3 -3 4 -12 1 -19z m1063 12 c0 -5 -5 -10 -11 -10 -5 0 -7 5 -4
10 3 6 8 10 11 10 2 0 4 -4 4 -10z m-306 -23 c8 -12 7 -20 -2 -29 -8 -7 -13
-8 -12 -3 5 23 -1 35 -16 35 -8 0 -12 5 -9 11 9 13 26 7 39 -14z m486 11 c0
-12 -17 -18 -34 -12 -9 3 -14 10 -11 14 6 10 45 9 45 -2z m3557 -20 c-3 -8 -6
-5 -6 6 -1 11 2 17 5 13 3 -3 4 -12 1 -19z m-3333 -3 c-4 -8 -12 -15 -20 -15
-8 0 -11 6 -8 15 4 8 12 15 20 15 8 0 11 -6 8 -15z m171 6 c43 -9 43 -11 5
-16 -85 -13 -127 -22 -138 -28 -8 -6 -12 -2 -12 12 0 38 56 50 145 32z m918
-27 c-5 -13 -8 -12 -24 2 -15 13 -16 19 -7 25 16 10 38 -9 31 -27z m1627 21
c10 -12 10 -18 0 -30 -18 -22 -25 -18 -27 15 -2 33 8 38 27 15z m-2224 -8 c4
-4 1 -14 -7 -23 -12 -14 -14 -14 -26 2 -7 10 -13 21 -13 24 0 8 37 6 46 -3z
m949 3 c3 -5 1 -10 -4 -10 -6 0 -11 5 -11 10 0 6 2 10 4 10 3 0 8 -4 11 -10z
m50 0 c3 -5 -1 -10 -10 -10 -9 0 -13 5 -10 10 3 6 8 10 10 10 2 0 7 -4 10 -10z
m1335 -10 c0 -13 -20 -13 -40 0 -12 8 -9 10 13 10 15 0 27 -4 27 -10z m-2020
-10 c0 -5 -2 -10 -4 -10 -3 0 -8 5 -11 10 -3 6 -1 10 4 10 6 0 11 -4 11 -10z"/>
<path d="M4422 4431 c-22 -14 -10 -46 18 -49 38 -4 55 11 41 37 -12 22 -36 27
-59 12z"/>
<path d="M4780 4265 c-10 -12 -9 -16 4 -21 9 -4 20 -4 23 0 4 3 1 6 -6 6 -7 0
-10 4 -6 10 3 5 13 6 22 3 11 -4 14 -3 9 5 -10 16 -31 15 -46 -3z"/>
<path d="M4840 4272 c0 -5 7 -15 15 -22 8 -7 15 -8 15 -2 0 5 -7 15 -15 22 -8
7 -15 8 -15 2z"/>
<path d="M4640 4201 c0 -8 180 -3 189 5 2 2 -39 4 -92 4 -53 0 -97 -4 -97 -9z"/>
<path d="M4590 4080 c0 -5 -5 -10 -10 -10 -6 0 -30 -9 -52 -20 -23 -11 -50
-20 -59 -20 -10 0 -31 -12 -49 -26 l-31 -26 6 -137 c3 -75 5 -176 4 -224 0
-49 3 -118 7 -154 l7 -65 14 31 c9 18 20 28 27 24 18 -12 40 -13 56 -3 12 8
13 13 2 30 -10 17 -9 30 8 76 11 31 17 61 13 67 -4 6 -5 32 -4 59 2 46 0 49
-34 65 -33 16 -48 43 -23 43 6 0 19 6 27 14 10 9 48 17 96 21 44 3 96 8 115
12 46 7 92 34 86 50 -3 7 1 10 10 6 9 -3 14 2 14 16 0 12 -6 21 -14 21 -7 0
-19 6 -25 14 -7 8 -25 17 -40 21 -42 9 -91 58 -84 84 4 16 1 21 -13 21 -16 0
-17 2 -4 10 11 7 7 10 -17 10 -18 0 -33 -4 -33 -10z"/>
<path d="M3961 3624 c0 -11 3 -14 6 -6 3 7 2 16 -1 19 -3 4 -6 -2 -5 -13z"/>
<path d="M3513 3613 c-7 -2 -13 -8 -13 -11 0 -10 60 -35 67 -28 3 3 -2 8 -11
12 -9 3 -16 12 -16 20 0 14 -6 16 -27 7z"/>
<path d="M3323 3573 c9 -2 23 -2 30 0 6 3 -1 5 -18 5 -16 0 -22 -2 -12 -5z"/>
<path d="M3971 3474 c0 -11 3 -14 6 -6 3 7 2 16 -1 19 -3 4 -6 -2 -5 -13z"/>
<path d="M4953 3475 c-17 -19 -16 -25 2 -25 8 0 15 9 15 20 0 23 -1 24 -17 5z"/>
<path d="M3886 3437 c1 -17 3 -37 3 -43 1 -16 37 -55 45 -47 3 3 6 1 6 -7 0
-9 3 -10 14 -1 11 9 15 2 20 -39 11 -80 29 -62 22 23 -3 39 -7 79 -9 87 -5 27
-41 55 -74 57 -29 3 -30 1 -27 -30z"/>
<path d="M3680 3250 c0 -12 28 -21 35 -11 2 5 -4 11 -15 14 -11 3 -20 2 -20
-3z"/>
<path d="M3340 2920 c0 -5 5 -10 11 -10 5 0 7 5 4 10 -3 6 -8 10 -11 10 -2 0
-4 -4 -4 -10z"/>
<path d="M3730 1060 c0 -5 7 -10 16 -10 8 0 12 5 9 10 -3 6 -10 10 -16 10 -5
0 -9 -4 -9 -10z"/>
<path d="M4043 993 c-14 -3 -21 -11 -20 -24 1 -16 3 -18 12 -6 5 7 19 19 30
25 20 12 17 13 -22 5z"/>
<path d="M3905 830 c-4 -17 -5 -34 -2 -36 2 -3 7 10 11 27 8 42 0 50 -9 9z"/>
<path d="M3835 411 c-3 -5 -2 -12 3 -15 5 -3 9 1 9 9 0 17 -3 19 -12 6z"/>
<path d="M2850 3160 c0 -5 5 -10 10 -10 6 0 10 5 10 10 0 6 -4 10 -10 10 -5 0
-10 -4 -10 -10z"/>
<path d="M2826 3059 c-29 -34 14 -81 54 -59 23 12 23 11 11 43 -12 32 -44 40
-65 16z"/>
<path d="M2320 2999 c0 -5 5 -7 10 -4 6 3 10 8 10 11 0 2 -4 4 -10 4 -5 0 -10
-5 -10 -11z"/>
<path d="M1148 353 c7 -3 16 -2 19 1 4 3 -2 6 -13 5 -11 0 -14 -3 -6 -6z"/>
<path d="M4206 447 c3 -10 9 -15 12 -12 3 3 0 11 -7 18 -10 9 -11 8 -5 -6z"/>
<path d="M4085 321 c-8 -26 1 -39 16 -24 8 8 8 17 1 29 -9 16 -10 15 -17 -5z"/>
<path d="M5190 209 c0 -5 5 -7 10 -4 6 3 10 1 10 -4 0 -6 7 -11 15 -11 9 0 12
6 9 15 -7 17 -44 21 -44 4z"/>
<path d="M3600 230 c0 -5 5 -10 10 -10 6 0 10 5 10 10 0 6 -4 10 -10 10 -5 0
-10 -4 -10 -10z"/>
<path d="M5270 100 c-18 -12 -2 -12 25 0 13 6 15 9 5 9 -8 0 -22 -4 -30 -9z"/>
<path d="M4980 105 c0 -8 5 -15 10 -15 6 0 10 7 10 15 0 8 -4 15 -10 15 -5 0
-10 -7 -10 -15z"/>
<path d="M4980 50 c0 -11 5 -20 10 -20 6 0 10 9 10 20 0 11 -4 20 -10 20 -5 0
-10 -9 -10 -20z"/>
<path d="M5448 3 c6 -2 18 -2 25 0 6 3 1 5 -13 5 -14 0 -19 -2 -12 -5z"/>
</g>
</svg>
